<svg width="93" height="122" viewBox="0 0 93 122" fill="none" xmlns="http://www.w3.org/2000/svg">
<path fill-rule="evenodd" clip-rule="evenodd" d="M87.0539 0C88.0539 0 88.8646 0.810701 88.8646 1.81075V3.31834H90.4596C91.4596 3.31834 92.2703 4.12904 92.2703 5.12909C92.2703 6.12913 91.4596 6.93983 90.4596 6.93983H88.8646V8.53461C88.8646 9.53466 88.0539 10.3454 87.0539 10.3454C86.0538 10.3454 85.2431 9.53466 85.2431 8.53461V6.93983H83.7357C82.7357 6.93983 81.925 6.12913 81.925 5.12909C81.925 4.12904 82.7357 3.31834 83.7357 3.31834H85.2431V1.81075C85.2431 0.810701 86.0538 0 87.0539 0ZM77.7217 8.32059C77.7217 7.32054 76.911 6.50984 75.9109 6.50984C74.9109 6.50984 74.1002 7.32054 74.1002 8.32059V11.4937H70.9269C69.9269 11.4937 69.1162 12.3044 69.1162 13.3044C69.1162 14.3045 69.9269 15.1152 70.9269 15.1152H74.1002V18.4194C74.1002 19.4194 74.9109 20.2301 75.9109 20.2301C76.911 20.2301 77.7217 19.4194 77.7217 18.4194V15.1152H81.0257C82.0258 15.1152 82.8365 14.3045 82.8365 13.3044C82.8365 12.3044 82.0258 11.4937 81.0257 11.4937H77.7217V8.32059ZM48.5307 73.7346C59.8157 69.8516 67.9244 59.1424 67.9244 46.5392C67.9244 30.6594 55.0512 17.7863 39.1714 17.7863C23.2916 17.7863 10.4185 30.6594 10.4185 46.5392C10.4185 59.2775 18.702 70.0811 30.1763 73.8571C12.6058 78.8646 0 97.6051 0 119.206C0 120.743 1.24642 121.99 2.78397 121.99C4.32151 121.99 5.56793 120.743 5.56793 119.206C5.56793 96.0327 21.2321 78.1153 39.5741 78.1153C57.916 78.1153 73.5802 96.0327 73.5802 119.206C73.5802 120.743 74.8266 121.99 76.3642 121.99C77.9017 121.99 79.1481 120.743 79.1481 119.206C79.1481 97.4248 66.331 78.5518 48.5307 73.7346ZM62.3564 46.5392C62.3564 59.344 51.9762 69.7242 39.1714 69.7242C26.3667 69.7242 15.9864 59.344 15.9864 46.5392C15.9864 33.7345 26.3667 23.3542 39.1714 23.3542C51.9762 23.3542 62.3564 33.7345 62.3564 46.5392Z" fill="#F5914C"/>
</svg>
