<svg width="111" height="70" viewBox="0 0 111 70" fill="none" xmlns="http://www.w3.org/2000/svg">
<path fill-rule="evenodd" clip-rule="evenodd" d="M55.8385 0.117262C56.2913 -0.0349504 56.7808 -0.0390801 57.2362 0.10547L108.679 16.4366C109.587 16.7248 110.215 17.5537 110.247 18.5058C110.279 19.458 109.708 20.327 108.821 20.6753L92.8314 26.957L93.9307 43.7474C93.9477 44.006 93.9202 44.2573 93.8549 44.4938C93.8986 44.8283 93.9216 45.1729 93.9216 45.5275C93.9216 49.0095 91.6973 51.5216 89.5828 53.1036C87.3882 54.7456 84.4987 56.0332 81.3324 57.0352C74.9472 59.0558 66.4044 60.2344 57.1677 60.2344C47.9309 60.2344 39.3881 59.0558 33.003 57.0352C29.8366 56.0332 26.9471 54.7456 24.7526 53.1036C22.638 51.5216 20.4137 49.0095 20.4137 45.5275C20.4137 44.1988 20.7376 43.0113 21.2557 41.9628L21.5925 27.1195L10.0161 21.9571V40.449C13.2082 41.4136 15.5324 44.3776 15.5324 47.8843V61.3575C15.5324 65.6467 12.0554 69.1237 7.76622 69.1237C3.47706 69.1237 0 65.6467 0 61.3575V47.8843C0 44.3776 2.32417 41.4137 5.51614 40.4491V18.5811C5.51614 17.4013 6.42418 16.4336 7.5795 16.3388L55.8385 0.117262ZM7.25711 44.6576C5.69503 44.9021 4.5 46.2536 4.5 47.8843V61.3575C4.5 61.4133 4.5014 61.4688 4.50416 61.5239C4.59079 63.2505 6.01814 64.6237 7.76622 64.6237C9.57011 64.6237 11.0324 63.1614 11.0324 61.3575V47.8843C11.0324 46.2536 9.83737 44.902 8.27525 44.6576C8.11166 44.6954 7.94124 44.7154 7.76614 44.7154C7.59107 44.7154 7.42068 44.6954 7.25711 44.6576ZM25.0698 44.5168C25.4025 44.1866 25.633 43.7528 25.7081 43.2661C28.9594 38.7172 41.8101 35.3205 57.1677 35.3205C74.981 35.3205 89.4216 39.8903 89.4216 45.5275C89.4216 51.1646 74.981 55.7344 57.1677 55.7344C39.3543 55.7344 24.9137 51.1646 24.9137 45.5275C24.9137 45.1864 24.9666 44.8493 25.0698 44.5168ZM25.8653 37.1853L26.1128 26.2743C36.6403 20.8929 62.0897 14.1369 88.2834 26.3715L89.015 37.5448C86.9006 36.095 84.2326 34.9376 81.3324 34.0198C74.9472 31.9991 66.4044 30.8205 57.1677 30.8205C47.9309 30.8205 39.3881 31.9991 33.003 34.0198C30.3466 34.8604 27.8851 35.902 25.8653 37.1853ZM101.272 18.8063L91.1854 22.7688C62.2193 8.74152 33.9492 16.8107 23.0121 22.8254L14.1554 18.8758L56.5753 4.617L101.272 18.8063Z" fill="#F5914C"/>
</svg>
