<svg width="86" height="97" viewBox="0 0 86 97" fill="none" xmlns="http://www.w3.org/2000/svg">
<path fill-rule="evenodd" clip-rule="evenodd" d="M20.6899 1.03747C21.1035 0.391075 21.8179 0 22.5853 0H61.8254C62.5844 0 63.2922 0.38264 63.7079 1.01765C64.1236 1.65266 64.1912 2.45445 63.8876 3.15006L57.8907 16.8896C63.6101 19.8137 68.7512 24.1665 72.9528 29.1379C80.6614 38.2588 85.9002 50.2479 85.9002 61.5053C85.9002 71.2242 85.4156 80.8492 78.7689 87.5525C72.1963 94.1811 60.7844 96.818 42.6867 96.818C24.5643 96.818 13.2323 94.044 6.78865 87.2071C0.343701 80.3689 0 70.6356 0 60.9786C0 49.7481 5.08587 37.8907 12.6799 28.8794C15.3756 25.6807 18.4669 22.7504 21.8599 20.3027C21.0962 20.3116 20.3163 20.3543 19.5368 20.4438C16.0769 20.8412 13.0583 22.1032 11.3551 24.9889C10.7234 26.0591 9.34389 26.4146 8.27375 25.7829C7.20361 25.1513 6.84813 23.7717 7.47977 22.7016C10.2027 18.0883 14.8858 16.4484 19.0233 15.9732C19.4032 15.9296 19.7821 15.8953 20.1585 15.8692C19.8005 15.6819 19.4426 15.5009 19.0873 15.3283C17.616 14.6137 16.2778 14.0872 15.2 13.8295C14.195 13.5891 13.7803 13.6709 13.7027 13.6862C13.6873 13.6892 13.6852 13.6896 13.6942 13.6845C12.6153 14.301 11.2409 13.9261 10.6244 12.8472C10.0078 11.7683 10.3827 10.3939 11.4616 9.77736C12.9913 8.90326 14.8421 9.11698 16.2467 9.45292C17.7773 9.81898 19.4479 10.5007 21.0535 11.2806C22.5131 11.9896 23.993 12.8163 25.3693 13.6478L20.5425 3.19313C20.2208 2.49644 20.2764 1.68387 20.6899 1.03747ZM4.5 60.9786C4.5 45.5261 15.4812 27.908 29.7048 20.7757C29.8384 20.7248 29.9664 20.6615 30.0873 20.5869C30.2013 20.5314 30.3156 20.4766 30.43 20.4225C30.5897 20.3882 30.748 20.3359 30.9024 20.2646C31.0493 20.1968 31.1855 20.1151 31.31 20.0218C34.9557 18.4247 38.7894 17.5247 42.6867 17.5247C46.2322 17.5247 49.7415 18.2862 53.1154 19.6504C53.3338 19.9167 53.6168 20.1367 53.9542 20.284C54.2868 20.4291 54.6353 20.4875 54.9746 20.4691C69.7008 27.4855 81.4002 45.7807 81.4002 61.5053C81.4002 81.4317 78.7666 92.318 42.6867 92.318C6.60685 92.318 4.5 80.9049 4.5 60.9786ZM53.7718 15.077C50.2257 13.7654 46.5055 13.0247 42.6867 13.0247C38.6634 13.0247 34.7624 13.8317 31.0675 15.2544L26.1023 4.5H58.3884L53.7718 15.077ZM47.6312 62.6011C48.6191 61.5942 49.1131 60.4163 49.1131 59.0673C49.1131 56.5975 47.3937 54.8021 43.9549 53.6812L44.0689 48.2665C44.7339 48.3995 45.2658 48.6275 45.6648 48.9504C46.0828 49.2544 46.3203 49.6059 46.3773 50.0049C46.4153 50.3469 46.5483 50.6318 46.7763 50.8598C47.0232 51.0688 47.3177 51.1733 47.6597 51.1733C48.0397 51.1733 48.3627 51.0403 48.6286 50.7743C48.8946 50.4894 49.0276 50.1379 49.0276 49.7199C49.0276 48.618 48.5906 47.706 47.7167 46.9841C46.8618 46.2621 45.6648 45.8251 44.1259 45.6731V45.1032C44.1259 44.7422 43.9929 44.4287 43.7269 44.1627C43.461 43.8778 43.1475 43.7353 42.7865 43.7353C42.4445 43.7353 42.1405 43.8778 41.8746 44.1627C41.6276 44.4287 41.5041 44.7422 41.5041 45.1032V45.7016C39.9082 45.9106 38.6542 46.4711 37.7423 47.383C36.8304 48.276 36.3744 49.3874 36.3744 50.7173C36.3744 52.0283 36.8209 53.0827 37.7138 53.8806C38.6257 54.6786 39.8702 55.3341 41.4471 55.847L41.3331 61.9457C40.6111 61.7937 39.9652 61.5182 39.3952 61.1192C38.8252 60.7012 38.4358 60.1788 38.2268 59.5518C38.1128 59.2478 37.9323 59.0008 37.6853 58.8109C37.4383 58.6209 37.1533 58.5259 36.8304 58.5259C36.4314 58.5259 36.0894 58.6684 35.8044 58.9533C35.5384 59.2193 35.4054 59.5423 35.4054 59.9223C35.4054 60.2073 35.5004 60.5682 35.6904 61.0052C36.1084 61.9172 36.8019 62.7056 37.7708 63.3706C38.7587 64.0355 39.9272 64.4535 41.2761 64.6245V65.2515C41.2761 65.6314 41.3996 65.9544 41.6466 66.2204C41.8936 66.4864 42.1975 66.6194 42.5585 66.6194C42.9195 66.6194 43.233 66.4769 43.499 66.1919C43.7649 65.9259 43.8979 65.6124 43.8979 65.2515V64.539C45.3988 64.254 46.6433 63.6081 47.6312 62.6011ZM39.6517 51.8288C39.2717 51.4488 39.0817 51.0118 39.0817 50.5179C39.0817 49.9479 39.2812 49.4729 39.6802 49.0929C40.0982 48.694 40.7061 48.428 41.5041 48.295L41.4756 52.8832C40.6396 52.5412 40.0317 52.1898 39.6517 51.8288ZM45.7218 60.8627C45.2658 61.3567 44.6579 61.6987 43.8979 61.8887L43.9264 56.645C44.8384 57.006 45.4843 57.4049 45.8643 57.8419C46.2443 58.2599 46.4343 58.7159 46.4343 59.2098C46.4343 59.8178 46.1968 60.3688 45.7218 60.8627Z" fill="#F5914C"/>
</svg>
