<svg width="123" height="91" viewBox="0 0 123 91" fill="none" xmlns="http://www.w3.org/2000/svg">
<path fill-rule="evenodd" clip-rule="evenodd" d="M102.266 40.1404C110.033 37.1347 115.54 29.5937 115.54 20.7664C115.54 9.29714 106.243 -0.000488281 94.7736 -0.000488281C83.3044 -0.000488281 74.0068 9.29714 74.0068 20.7664C74.0068 29.6766 79.6184 37.2762 87.5002 40.2238C82.4176 42.6509 78.0744 47.4543 74.7681 53.523C74.0926 54.7629 73.4542 56.0653 72.8554 57.4246C70.9163 52.9557 66.4644 49.83 61.2825 49.83C54.3184 49.83 48.6728 55.4755 48.6728 62.4396C48.6728 63.7372 48.8689 64.9891 49.2329 66.1672C45.7341 61.418 41.0891 57.834 35.7393 56.0591C43.2575 52.9357 48.5444 45.5219 48.5444 36.8732C48.5444 25.404 39.2467 16.1064 27.7775 16.1064C16.3083 16.1064 7.0107 25.404 7.0107 36.8732C7.0107 45.62 12.4182 53.1037 20.0725 56.1637C8.28747 60.2476 0 73.1398 0 87.8506C0 89.0938 1.0078 90.1016 2.25099 90.1016C3.49417 90.1016 4.50197 89.0938 4.50197 87.8506C4.50197 71.7074 15.4044 59.3226 28.0602 59.3226C37.579 59.3226 46.106 66.3288 49.7483 76.6707C47.575 79.765 46.3071 83.7026 46.3071 87.8507C46.3071 89.0939 47.3149 90.1017 48.5581 90.1017C49.8013 90.1017 50.8091 89.0939 50.8091 87.8507C50.8091 86.3533 51.0064 84.9387 51.3653 83.6323C51.5319 85.0045 51.6184 86.4126 51.6184 87.8506C51.6184 89.0938 52.6262 90.1016 53.8694 90.1016C55.1125 90.1016 56.1203 89.0938 56.1203 87.8506C56.1203 84.3249 55.6443 80.9038 54.7582 77.6833C56.1737 76.2818 57.8668 75.3279 59.6613 74.9459C60.1921 75.0141 60.7332 75.0492 61.2825 75.0492C61.8905 75.0492 62.4886 75.0061 63.0737 74.9229C64.7087 75.2485 66.2629 76.0489 67.604 77.2306C67.1712 80.7199 66.9439 84.3434 66.9439 88.0558C66.9439 89.299 67.9517 90.3068 69.1949 90.3068C70.438 90.3068 71.4458 89.299 71.4458 88.0558C71.4458 86.6473 71.4802 85.2548 71.5474 83.881C71.8644 85.1176 72.0376 86.4478 72.0376 87.8507C72.0376 89.0939 73.0454 90.1017 74.2886 90.1017C75.5318 90.1017 76.5396 89.0939 76.5396 87.8507C76.5396 83.2525 74.9817 78.9129 72.3594 75.694C73.5304 67.9615 75.7673 61.0991 78.7214 55.6768C83.2204 47.419 89.065 42.993 94.9719 42.993C100.879 42.993 106.723 47.419 111.222 55.6768C115.675 63.849 118.498 75.2925 118.498 88.0558C118.498 89.299 119.506 90.3068 120.749 90.3068C121.992 90.3068 123 89.299 123 88.0558C123 74.6885 120.053 62.4751 115.176 53.523C111.831 47.384 107.425 42.5397 102.266 40.1404ZM94.7736 37.0312C103.756 37.0312 111.038 29.7492 111.038 20.7664C111.038 11.7835 103.756 4.50148 94.7736 4.50148C85.7908 4.50148 78.5088 11.7835 78.5088 20.7664C78.5088 29.7492 85.7908 37.0312 94.7736 37.0312ZM63.0472 70.3546C66.6764 69.549 69.3901 66.3112 69.3901 62.4396C69.3901 57.9618 65.7602 54.3319 61.2825 54.3319C56.8047 54.3319 53.1748 57.9618 53.1748 62.4396C53.1748 66.3485 55.9411 69.6113 59.6228 70.3772C60.2107 70.298 60.8114 70.2571 61.4233 70.2571C61.9742 70.2571 62.5158 70.2902 63.0472 70.3546ZM53.8296 72.612C53.313 72.2329 52.8264 71.8154 52.374 71.3637C52.6508 71.9298 52.9138 72.506 53.1624 73.0917C53.3806 72.9253 53.6031 72.7654 53.8296 72.612ZM44.0424 36.8732C44.0424 45.8561 36.7604 53.1381 27.7775 53.1381C18.7947 53.1381 11.5127 45.8561 11.5127 36.8732C11.5127 27.8904 18.7947 20.6083 27.7775 20.6083C36.7604 20.6083 44.0424 27.8904 44.0424 36.8732Z" fill="#F5914C"/>
</svg>
