<svg width="108" height="122" viewBox="0 0 108 122" fill="none" xmlns="http://www.w3.org/2000/svg">
<path fill-rule="evenodd" clip-rule="evenodd" d="M67.5818 46.8776C75.2076 42.6488 80.3693 34.5168 80.3693 25.1791C80.3693 11.4856 69.2685 0.384766 55.5749 0.384766C41.8813 0.384766 30.7805 11.4856 30.7805 25.1791C30.7805 38.7586 41.6971 49.7884 55.2331 49.9712C55.414 50.009 55.6015 50.0288 55.7936 50.0288C68.3852 50.0288 80.0379 59.6648 88.732 73.6765C97.3606 87.5828 102.542 105.005 102.542 118.956C102.542 120.463 103.763 121.685 105.271 121.685C106.778 121.685 108 120.463 108 118.956C108 103.867 102.468 85.4604 93.3701 70.7986C86.738 60.1099 77.92 50.9765 67.5818 46.8776ZM74.9108 25.1791C74.9108 35.8581 66.2538 44.515 55.5749 44.515C44.896 44.515 36.239 35.8581 36.239 25.1791C36.239 14.5002 44.896 5.84325 55.5749 5.84325C66.2538 5.84325 74.9108 14.5002 74.9108 25.1791ZM73.0198 79.5121C73.0198 85.9418 69.6593 91.5865 64.599 94.786C72.5964 99.0348 77.9025 108.517 77.9025 119C77.9025 120.507 76.6806 121.729 75.1733 121.729C73.6659 121.729 72.444 120.507 72.444 119C72.444 106.87 64.2847 97.8873 55.1812 97.8873C46.0776 97.8873 37.9183 106.87 37.9183 119C37.9183 120.507 36.6964 121.729 35.1891 121.729C33.6817 121.729 32.4598 120.507 32.4598 119C32.4598 108.619 37.6623 99.2209 45.5288 94.9125C40.3554 91.7368 36.9049 86.0274 36.9049 79.5121C36.9049 69.5393 44.9895 61.4547 54.9623 61.4547C64.9352 61.4547 73.0198 69.5393 73.0198 79.5121ZM67.5613 79.5121C67.5613 86.4703 61.9205 92.1111 54.9623 92.1111C48.0041 92.1111 42.3634 86.4703 42.3634 79.5121C42.3634 72.5539 48.0041 66.9132 54.9623 66.9132C61.9205 66.9132 67.5613 72.5539 67.5613 79.5121ZM37.5358 56.4359C38.7729 55.5747 39.0776 53.8737 38.2164 52.6367C37.3552 51.3996 35.6542 51.0949 34.4172 51.9561C24.4278 58.9102 15.8524 70.0328 9.78084 82.1038C3.70867 94.1761 0 107.477 0 118.956C0 120.463 1.22192 121.685 2.72924 121.685C4.23656 121.685 5.45848 120.463 5.45848 118.956C5.45848 108.537 8.86166 96.0788 14.6572 84.5565C20.4534 73.033 28.5016 62.725 37.5358 56.4359Z" fill="#F5914C"/>
</svg>
