<svg width="357" height="271" viewBox="0 0 357 271" fill="none" xmlns="http://www.w3.org/2000/svg">
<path fill-rule="evenodd" clip-rule="evenodd" d="M290.85 47.6221C298.561 67.1705 301.082 88.5094 297.989 109.527C293.921 137.172 280.393 162.55 259.711 181.339C239.029 200.127 212.472 211.164 184.565 212.567C156.658 213.97 129.128 205.653 106.666 189.034C84.2033 172.415 68.1983 148.521 61.3778 121.424C58.2616 109.044 57.1507 96.3455 57.9997 83.7933H0.186264C-0.603677 101.072 1.11615 118.497 5.39958 135.514C15.48 175.562 39.1345 210.876 72.3328 235.438C105.531 260 146.219 272.292 187.464 270.218C228.709 268.144 267.958 251.834 298.525 224.065C329.093 196.297 349.086 158.789 355.098 117.932C361.111 77.0748 352.771 35.3971 331.499 0L290.85 24.4278V47.6221Z" fill="#FFF2EA"/>
</svg>
