<svg width="80" height="190" viewBox="0 0 80 190" fill="none" xmlns="http://www.w3.org/2000/svg">
<path fill-rule="evenodd" clip-rule="evenodd" d="M-54.2682 43.9661C-45.2442 37.2817 -34.5778 33.0291 -23.3007 31.7187C-8.46818 29.995 6.5031 33.4677 19.0622 41.545C31.6214 49.6222 40.9913 61.8043 45.5755 76.0155C50.1597 90.2268 49.6745 105.588 44.2026 119.481C38.7307 133.375 28.6107 144.942 15.5668 152.21C9.60738 155.531 3.20608 157.861 -3.39072 159.159L4.60566 189.002C13.6343 187.019 22.3909 183.722 30.5827 179.157C49.8608 168.414 64.8176 151.32 72.9048 130.786C80.9919 110.252 81.709 87.5487 74.9338 66.5453C68.1586 45.5418 54.3104 27.5374 35.7487 15.5996C17.1869 3.66186 -4.93981 -1.47055 -26.8615 1.07688C-48.7831 3.62431 -69.1433 13.694 -84.4728 29.5701L-66.2411 47.1742L-54.2682 43.9661Z" fill="#FFF2EA"/>
</svg>
