<svg width="283" height="272" viewBox="0 0 283 272" fill="none" xmlns="http://www.w3.org/2000/svg">
<path fill-rule="evenodd" clip-rule="evenodd" d="M291 48.3292C298.712 67.8775 301.232 89.2165 298.139 110.234C294.071 137.879 280.544 163.257 259.861 182.046C239.179 200.835 212.622 211.871 184.715 213.274C156.809 214.677 129.279 206.36 106.816 189.741C84.3537 173.122 68.3487 149.228 61.5282 122.131C58.412 109.751 57.3011 97.0525 58.1501 84.5003H0.336655C-0.453287 101.779 1.26654 119.204 5.54997 136.221C15.6304 176.269 39.2849 211.583 72.4832 236.145C105.681 260.708 146.369 272.999 187.614 270.925C228.859 268.851 268.109 252.541 298.676 224.772C329.243 197.004 349.236 159.496 355.249 118.639C361.261 77.7818 352.921 36.1041 331.649 0.707031L291 25.1348V48.3292Z" fill="#FCD9C2"/>
</svg>
